<svg xmlns="http://www.w3.org/2000/svg" viewBox="10 6 27 34">
	<path fill="#fff" d="M23.68 7.305c-.578 0-1.151.033-1.518.101-1.7.315-2.996.929-4.197 1.987-.948.834-1.567 1.696-1.957 2.732-.386 1.02-.416 1.132-.43 3.602l-.03 4.93h-.644c-1.152 0-1.83.222-2.502.812-.44.387-.732.86-.84 1.36-.088.411-.088 13.122 0 13.534.213.987 1.148 1.846 2.27 2.086.301.065 1.98.08 9.799.082 6.035.004 9.556-.016 9.775-.05a3.256 3.256 0 0 0 1.608-.788c.416-.397.635-.75.765-1.238.14-.525.14-13.194 0-13.719-.207-.77-.798-1.437-1.576-1.773-.553-.238-.948-.307-1.76-.307h-.619l-.027-4.93c-.015-2.468-.047-2.581-.432-3.601-.392-1.036-1.009-1.898-1.957-2.732-1.192-1.05-2.571-1.706-4.18-1.987-.387-.067-.97-.101-1.548-.101zm.008 2.406c1.01-.001 1.069.006 1.65.178 1.705.503 2.96 1.621 3.531 3.142l.18.475.02 2.25.023 4.898h-10.81l.023-4.898.02-2.25.202-.531c.577-1.503 1.849-2.608 3.573-3.108.503-.146.612-.156 1.587-.156zm-.336 18.008a2.806 2.806 0 0 1 .158.004 2.806 2.806 0 0 1 .156.013 2.806 2.806 0 0 1 .156.022 2.806 2.806 0 0 1 .155.031 2.806 2.806 0 0 1 .152.04 2.806 2.806 0 0 1 .15.048 2.806 2.806 0 0 1 .147.055 2.806 2.806 0 0 1 .144.064 2.806 2.806 0 0 1 .139.072 2.806 2.806 0 0 1 .137.08 2.806 2.806 0 0 1 .13.088 2.806 2.806 0 0 1 .126.096 2.806 2.806 0 0 1 .12.102 2.806 2.806 0 0 1 .114.107 2.806 2.806 0 0 1 .107.113 2.806 2.806 0 0 1 .102.121 2.806 2.806 0 0 1 .096.125 2.806 2.806 0 0 1 .088.131 2.806 2.806 0 0 1 .08.137 2.806 2.806 0 0 1 .072.139 2.806 2.806 0 0 1 .064.144 2.806 2.806 0 0 1 .055.147 2.806 2.806 0 0 1 .049.15 2.806 2.806 0 0 1 .039.152 2.806 2.806 0 0 1 .031.155 2.806 2.806 0 0 1 .022.156 2.806 2.806 0 0 1 .013.156 2.806 2.806 0 0 1 .004.158 2.806 2.806 0 0 1-.031.41 2.806 2.806 0 0 1-.09.403 2.806 2.806 0 0 1-.148.383 2.806 2.806 0 0 1-.203.36 2.806 2.806 0 0 1-.252.323 2.806 2.806 0 0 1-.3.283v4.106h-3.636v-4.162a2.806 2.806 0 0 1-.33-.344 2.806 2.806 0 0 1-.266-.394 2.806 2.806 0 0 1-.197-.434 2.806 2.806 0 0 1-.12-.459 2.806 2.806 0 0 1-.04-.475 2.806 2.806 0 0 1 .035-.44 2.806 2.806 0 0 1 .102-.427 2.806 2.806 0 0 1 .17-.408 2.806 2.806 0 0 1 .23-.375 2.806 2.806 0 0 1 .285-.334 2.806 2.806 0 0 1 .336-.287 2.806 2.806 0 0 1 .375-.229 2.806 2.806 0 0 1 .406-.17 2.806 2.806 0 0 1 .428-.101 2.806 2.806 0 0 1 .44-.035z"/>
</svg>
