<svg xmlns="http://www.w3.org/2000/svg" viewBox="0 0 1000 1000"><g id="cloud_1"><path stroke="#000" stroke-width="5" fill="white" fill-rule="evenodd" d="M233.18 165.848a66.593 66.593 0 0 0-52.8 26.283 66.593 66.593 0 0 0-25.597-5.117 66.593 66.593 0 0 0-53.014 26.559 66.593 66.593 0 0 0-1.424-.034 66.593 66.593 0 0 0-66.59 66.593 66.593 66.593 0 0 0 66.587 66.588 66.593 66.593 0 0 0 2.942-.21 106.118 66.593 0 0 0 84.07 25.966 106.118 66.593 0 0 0 86.435-28.167 66.593 66.593 0 0 0 17.437 2.41 66.593 66.593 0 0 0 66.588-66.587 66.593 66.593 0 0 0-60.715-66.32 66.593 66.593 0 0 0-63.918-47.964z"/><text xml:space="preserve" x="65" font-family="sans-serif" font-size="12" style="line-height:1.25;text-align:center;white-space:pre;inline-size:50.164" text-anchor="middle" transform="translate(33.754 165.848) scale(2)"><tspan x="70" y="40"></tspan></text></g><g id="cloud_2"><path stroke="#000" stroke-width="5" fill="white" fill-rule="evenodd" d="M548.202 44.408a66.593 66.593 0 0 0-52.8 26.283 66.593 66.593 0 0 0-25.598-5.117 66.593 66.593 0 0 0-53.013 26.56 66.593 66.593 0 0 0-1.425-.035 66.593 66.593 0 0 0-66.59 66.593 66.593 66.593 0 0 0 66.588 66.588 66.593 66.593 0 0 0 2.941-.21 106.118 66.593 0 0 0 84.071 25.967 106.118 66.593 0 0 0 86.435-28.167 66.593 66.593 0 0 0 17.436 2.41 66.593 66.593 0 0 0 66.588-66.588 66.593 66.593 0 0 0-60.715-66.319 66.593 66.593 0 0 0-63.918-47.965z"/><text xml:space="preserve" x="65" font-family="sans-serif" font-size="12" style="line-height:1.25;text-align:center;white-space:pre;inline-size:111.164" text-anchor="middle" transform="translate(348.776 44.408) scale(2)"><tspan x="70" y="40"></tspan></text></g><g id="cloud_3"><path stroke="#000" stroke-width="5" fill="white" fill-rule="evenodd" d="M847.033 184.989a66.593 66.593 0 0 0-52.8 26.283 66.593 66.593 0 0 0-25.598-5.118 66.593 66.593 0 0 0-53.013 26.56 66.593 66.593 0 0 0-1.425-.034 66.593 66.593 0 0 0-66.59 66.593 66.593 66.593 0 0 0 66.588 66.588 66.593 66.593 0 0 0 2.941-.21 106.118 66.593 0 0 0 84.071 25.966 106.118 66.593 0 0 0 86.435-28.167 66.593 66.593 0 0 0 17.436 2.41 66.593 66.593 0 0 0 66.588-66.587 66.593 66.593 0 0 0-60.715-66.32 66.593 66.593 0 0 0-63.918-47.964z"/><text xml:space="preserve" x="65" font-family="sans-serif" font-size="12" style="line-height:1.25;text-align:center;white-space:pre;inline-size:111.164" text-anchor="middle" transform="translate(647.607 184.989) scale(2)"><tspan x="70" y="40"></tspan></text></g></svg>
