<svg width="1226" height="298" viewBox="0 0 1226 298" fill="none" xmlns="http://www.w3.org/2000/svg">
<g clip-path="url(#clip0_33693_22987)">
<path d="M1226 0H0V298H1226V0Z" fill="#8E725F"/>
<path d="M1225.8 45L1195.5 52.1L1225.8 51.4001L1225.2 178.2L1178.1 189.1L1225.2 186.5L1224.7 298L1190.6 295.9L1182.5 276.3L1182.4 295.4L1058.8 287.9L1060.1 13L1226 4.30005L1225.8 45Z" fill="#EFAB3A"/>
<path d="M314.8 1.19995L313.5 293.3L264.5 290.3L253.8 254.1L253.6 289.7L162.3 284.1L163.5 9.09995L314.6 1.19995H314.8Z" fill="#EFAB3A"/>
<path d="M462.4 10.4L461.1 285.4L313.5 293.3L314.8 1.19995L389.5 5.89995L398.2 34L409.3 7.09995L462.4 10.4Z" fill="#F4C479"/>
<path d="M912.5 3.80005L911.2 295.9L862.2 292.9L851.5 256.7L851.3 292.2L760 286.7L761.2 11.7L912.3 3.80005H912.5Z" fill="#EFAB3A"/>
<path d="M1060.1 13L1058.8 288L911.2 295.9L912.5 3.80005L987.2 8.40005L995.9 36.6L1007 9.70005L1060.1 13Z" fill="#F4C479"/>
<path d="M608.7 294.6L610 2.5L659 5.5L669.7 41.7L669.8 6.1L761.2 11.7L760 286.7L608.9 294.6H608.7Z" fill="#F4C479"/>
<path d="M461.1 285.4L462.4 10.4L610 2.5L608.7 294.6L534 289.9L525.2 261.8L514.2 288.7L461.1 285.4Z" fill="#EFAB3A"/>
<path d="M163.5 9.1L162.3 284.1H162.2L0 292.8L0.1 273.3L84.3 258.7L0.1 261.8L1.2 36.1L56.3 39L1.2 27.8L1.3 0L163.5 9.1Z" fill="#F4C479"/>
<path d="M76.8005 19.2C76.8005 19.1 76.8005 18.9 76.8005 18.8C76.8005 18.6 76.8005 18.5 76.8005 18.3L81.8005 24.7C81.9005 24.8 82.0005 24.9 82.1005 25C82.2005 25.1 82.3005 25.1 82.5005 25.1H83.6005V15H81.8005V20.7C81.8005 20.8 81.8005 21 81.8005 21.2C81.8005 21.4 81.8005 21.5 81.8005 21.7L76.8005 15.3C76.7005 15.2 76.7005 15.2 76.6005 15.1L76.5005 15C76.4005 15 76.4005 15 76.3005 15C76.2005 15 76.2005 15 76.1005 15H75.0005V25H76.8005V19.2Z" fill="#A98973"/>
<path d="M81.9002 99.5C81.7002 99.3 81.4002 99.1 81.2002 99C80.9002 98.9 80.6002 98.8 80.4002 98.7C80.1002 98.6 79.8002 98.5 79.6002 98.4C79.3002 98.3 79.1002 98.2 78.9002 98.1C78.7002 98 78.5002 97.9 78.4002 97.7C78.3002 97.6 78.2002 97.4 78.2002 97.2C78.2002 96.9 78.3002 96.6 78.6002 96.4C78.8002 96.2 79.2002 96.1 79.7002 96.1C80.0002 96.1 80.2002 96.1 80.4002 96.2C80.6002 96.3 80.8002 96.3 80.9002 96.4C81.1002 96.5 81.2002 96.6 81.3002 96.6C81.4002 96.7 81.5002 96.7 81.6002 96.7C81.7002 96.7 81.8002 96.7 81.9002 96.6C82.0002 96.6 82.0002 96.5 82.1002 96.4L82.6002 95.4C82.2002 95.1 81.8002 94.8 81.3002 94.6C80.8002 94.4 80.2002 94.3 79.6002 94.3C79.1002 94.3 78.6002 94.4 78.2002 94.5C77.8002 94.7 77.4002 94.9 77.1002 95.2C76.8002 95.5 76.6002 95.8 76.5002 96.1C76.4002 96.4 76.3002 96.8 76.3002 97.2C76.3002 97.7 76.4002 98.1 76.5002 98.4C76.6002 98.7 76.8002 99 77.0002 99.2C77.2002 99.4 77.5002 99.6 77.7002 99.7C78.0002 99.8 78.3002 99.9 78.5002 100C78.8002 100.1 79.1002 100.2 79.3002 100.3C79.6002 100.4 79.8002 100.5 80.0002 100.6C80.2002 100.7 80.4002 100.8 80.5002 101C80.6002 101.2 80.7002 101.4 80.7002 101.6C80.7002 102 80.6002 102.4 80.3002 102.6C80.0002 102.8 79.7002 102.9 79.2002 102.9C78.9002 102.9 78.6002 102.9 78.3002 102.8C78.1002 102.7 77.9002 102.6 77.7002 102.5C77.5002 102.4 77.4002 102.3 77.2002 102.2C77.1002 102.1 76.9002 102.1 76.8002 102.1C76.7002 102.1 76.6002 102.1 76.5002 102.2C76.4002 102.2 76.4002 102.3 76.3002 102.4L75.7002 103.4C75.9002 103.6 76.1002 103.8 76.4002 103.9C76.7002 104.1 76.9002 104.2 77.2002 104.3C77.5002 104.4 77.8002 104.5 78.1002 104.6C78.4002 104.7 78.7002 104.7 79.0002 104.7C79.6002 104.7 80.1002 104.6 80.5002 104.4C80.9002 104.2 81.3002 104 81.6002 103.7C81.9002 103.4 82.1002 103.1 82.3002 102.7C82.5002 102.3 82.5002 101.9 82.5002 101.4C82.5002 101 82.4002 100.6 82.3002 100.3C82.3002 99.9 82.1002 99.7 81.9002 99.5Z" fill="#A98973"/>
<path d="M47.6003 54C47.4003 54 47.3003 54 47.2003 54.1C47.1003 54.2 47.0003 54.3 47.0003 54.4L45.4003 60C45.4003 60.1 45.3003 60.3 45.3003 60.5C45.3003 60.7 45.2003 60.9 45.2003 61C45.2003 60.8 45.1003 60.6 45.1003 60.5C45.1003 60.3 45.0003 60.2 44.9003 60L43.0003 54.4C42.9003 54.3 42.9003 54.2 42.7003 54.1C42.7003 54 42.5003 54 42.3003 54H41.7003C41.5003 54 41.4003 54 41.3003 54.1C41.2003 54.2 41.1003 54.3 41.1003 54.4L39.3003 60C39.2003 60.2 39.2003 60.3 39.1003 60.5C39.1003 60.7 39.0003 60.9 39.0003 61.1C39.0003 60.9 38.9003 60.7 38.9003 60.5C38.9003 60.3 38.8003 60.1 38.8003 60L37.2003 54.4C37.2003 54.3 37.1003 54.2 37.0003 54.1C36.8003 54 36.7003 54 36.5003 54H34.8003L37.9003 64H39.8003L41.9003 57.4C41.9003 57.3 42.0003 57.2 42.0003 57.1C42.0003 57 42.1003 56.9 42.1003 56.7C42.1003 56.8 42.2003 56.9 42.2003 57.1C42.2003 57.3 42.3003 57.3 42.3003 57.4L44.4003 64H46.3003L49.4003 54H47.6003Z" fill="#A98973"/>
<path d="M120.4 55.6V54H114V64H120.4V62.4H116.1V59.7H119.5V58.2H116.1V55.6H120.4Z" fill="#A98973"/>
<path d="M110.7 60.3L99.9003 58.2C99.5003 53.7 97.6003 49.5 94.7003 46.3L97.7003 43.5L96.9003 42.6L93.9003 45.4C90.6003 42.1 86.2003 39.9 81.4003 39.4L79.3003 29L77.2003 39.5C72.9003 39.9 69.1003 41.7 66.0003 44.3L63.3003 41.4L62.4003 42.2L65.0003 45C61.4003 48.4 59.1003 53 58.6003 58.1L47.8003 60.2L58.6003 62.4C59.1003 66.6 60.9003 70.4 63.5003 73.4L61.0003 75.7L61.8003 76.6L64.2003 74.3C67.5003 77.7 71.9003 80 76.8003 80.5L79.0003 91.6L81.2003 80.5C85.7003 80 89.7003 78.1 92.9003 75.2L95.3003 77.8L96.2003 77L94.0003 74.5C97.1003 71.3 99.2003 67.1 99.8003 62.5L110.7 60.3ZM98.7003 58L85.1003 55.3L93.9003 47.2C96.5003 50.1 98.2003 53.8 98.7003 58ZM81.8003 56.7C81.1003 56.2 80.2003 55.9 79.3003 55.9C78.6003 55.9 77.9003 56.1 77.3003 56.5L75.9003 55C76.9003 54.3 78.1003 53.9 79.4003 53.9C80.9003 53.9 82.3003 54.5 83.4003 55.4L81.8003 56.7ZM76.5003 63.2C77.2003 63.9 78.2003 64.3 79.3003 64.3C80.3003 64.3 81.3003 63.9 82.0003 63.3L83.4003 64.8C82.3003 65.8 80.9003 66.3 79.3003 66.3C77.7003 66.3 76.2003 65.7 75.0003 64.6L76.5003 63.2ZM82.8003 62.4C83.2003 61.7 83.5003 60.9 83.5003 60.1C83.5003 59.2 83.2003 58.3 82.6003 57.6L84.1003 56.2C85.0003 57.3 85.5003 58.6 85.5003 60.1C85.5003 61.5 85.0003 62.9 84.2003 63.9L82.8003 62.4ZM74.9003 55.7L76.3003 57.2C75.6003 58 75.1003 59 75.1003 60.1C75.1003 60.9 75.3003 61.7 75.8003 62.3L74.3003 63.7C73.6003 62.7 73.1003 61.4 73.1003 60.1C73.1003 58.3 73.8003 56.8 74.9003 55.7ZM93.1003 46.3L84.4003 54.4L81.7003 40.8C86.1003 41.2 90.1003 43.3 93.1003 46.3ZM77.0003 40.7L74.5003 53.4L66.8003 45.1C69.6003 42.8 73.1003 41.2 77.0003 40.7ZM65.9003 45.9L74.1003 54.8C74.0003 54.9 73.9003 55.1 73.7003 55.2L59.9003 58C60.4003 53.2 62.6003 49 65.9003 45.9ZM60.0003 62.7L72.6003 65.2L64.5003 72.7C62.1003 70 60.5003 66.5 60.0003 62.7ZM65.3003 73.6L74.0003 65.5H74.1003L76.9003 79.4C72.3003 78.8 68.3003 76.7 65.3003 73.6ZM81.8003 79.4L84.5003 65.9L92.5003 74.5C89.5003 77.1 85.8003 78.9 81.8003 79.4ZM93.3003 73.7L85.6003 65.4L98.7003 62.8C98.0003 67 96.1003 70.8 93.3003 73.7Z" fill="#A98973"/>
<path d="M830.3 115.5C830.3 115.5 834.9 87.0001 844.4 87.0001C853.9 87.0001 858.1 104.4 858.1 104.4C858.1 104.4 864.8 53.9001 879.6 53.9001C894.4 53.9001 897.2 93.0001 897.2 93.0001C897.2 93.0001 915.2 75.4001 924.3 115.5" stroke="#A98973" stroke-width="2" stroke-miterlimit="10"/>
<path d="M871.9 119C889 80.5001 900.8 92.1001 912.7 122.9" stroke="#A98973" stroke-width="2" stroke-miterlimit="10"/>
<path d="M915.8 77.5C929.2 47.9 936.2 60.6 943.3 74.3" stroke="#A98973" stroke-width="2" stroke-miterlimit="10"/>
<path d="M930.8 59.5C939 31.5 955.7 24.7 968.3 61.8" stroke="#A98973" stroke-width="2" stroke-miterlimit="10"/>
<path d="M956.1 86.5001C968.9 46.7001 976 57.9001 986.2 68.5001" stroke="#A98973" stroke-width="2" stroke-miterlimit="10"/>
<path d="M480.2 139.1C480.2 139.1 484.8 110.6 494.3 110.6C503.8 110.6 508 128 508 128C508 128 515.3 85.3999 530.1 85.3999C544.9 85.3999 547.1 116.6 547.1 116.6C547.1 116.6 565.1 98.9999 574.2 139.1" stroke="#A98973" stroke-width="2" stroke-miterlimit="10"/>
<path d="M521.8 142.5C538.9 104 550.7 115.6 562.6 146.4" stroke="#A98973" stroke-width="2" stroke-miterlimit="10"/>
<path d="M565.7 101.1C579.1 71.4998 586.1 84.1998 593.2 97.8998" stroke="#A98973" stroke-width="2" stroke-miterlimit="10"/>
<path d="M580.7 83.0999C588.9 55.0999 605.6 48.2999 618.2 85.3999" stroke="#A98973" stroke-width="2" stroke-miterlimit="10"/>
<path d="M606 110.1C618.8 70.2999 625.9 81.4999 636.1 92.0999" stroke="#A98973" stroke-width="2" stroke-miterlimit="10"/>
<path d="M820.8 188.6C815.6 188.6 811.3 192.8 811.3 198.1V207.6H830.2V198.1C830.3 192.9 826 188.6 820.8 188.6Z" fill="#A98973"/>
<path d="M785.6 207.6C818 156.7 816.6 163.5 824.7 176.8" stroke="#A98973" stroke-width="2" stroke-miterlimit="10"/>
<path d="M819 182.5C836.7 162.7 839.5 175.5 857.8 207.6" stroke="#A98973" stroke-width="2" stroke-miterlimit="10"/>
<path d="M818.2 167.5C830.2 149.6 834.8 158.8 848.4 181.4" stroke="#A98973" stroke-width="2" stroke-miterlimit="10"/>
<path d="M845.1 185.1C852.1 175.6 854.1 179.3 868.5 205.3" stroke="#A98973" stroke-width="2" stroke-miterlimit="10"/>
<path d="M794.8 193.3C787.8 184.4 781.5 195.6 774.6 207" stroke="#A98973" stroke-width="2" stroke-miterlimit="10"/>
<path d="M383.7 234C383.7 239.1 380.3 240.9 376.1 240.9C371.9 240.9 368.5 239.1 368.5 234C368.5 228.9 371.9 213 376.1 213C380.2 213 383.7 228.9 383.7 234Z" stroke="#A98973" stroke-width="2" stroke-miterlimit="10"/>
<path d="M376.1 215.3L378.3 253.3H373.8L376 215.3H376.1Z" fill="#A98973"/>
<path d="M219 52.7998C219 57.8998 215.6 59.6998 211.4 59.6998C207.2 59.6998 203.8 57.8998 203.8 52.7998C203.8 47.6998 207.2 31.7998 211.4 31.7998C215.6 31.7998 219 47.6998 219 52.7998Z" stroke="#A98973" stroke-width="2" stroke-miterlimit="10"/>
<path d="M211.5 34.0999L213.6 72.0999H209.2L211.3 34.0999H211.5Z" fill="#A98973"/>
<path d="M360.3 228.9C360.3 234 356.9 235.8 352.7 235.8C348.5 235.8 345.1 234 345.1 228.9C345.1 223.8 348.5 207.9 352.7 207.9C356.9 207.9 360.3 223.8 360.3 228.9Z" stroke="#A98973" stroke-width="2" stroke-miterlimit="10"/>
<path d="M352.7 210.2L354.9 248.2H350.4L352.6 210.2H352.7Z" fill="#A98973"/>
<path d="M374 203.4C374 208.5 370.6 210.3 366.4 210.3C362.2 210.3 358.8 208.5 358.8 203.4C358.8 198.3 362.2 182.4 366.4 182.4C370.6 182.5 374 198.3 374 203.4Z" stroke="#A98973" stroke-width="2" stroke-miterlimit="10"/>
<path d="M366.4 184.8L368.6 222.8H364.1L366.3 184.8H366.4Z" fill="#A98973"/>
<path d="M771.7 244.3C771.7 249.4 768.3 251.2 764.1 251.2C759.9 251.2 756.5 249.4 756.5 244.3C756.5 239.2 759.9 223.3 764.1 223.3C768.3 223.3 771.7 239.2 771.7 244.3Z" stroke="#A98973" stroke-width="2" stroke-miterlimit="10"/>
<path d="M764.1 225.6L766.3 263.6H761.8L764 225.6H764.1Z" fill="#A98973"/>
<path d="M786.7 228.2C786.7 233.3 783.3 235.1 779.1 235.1C774.9 235.1 771.5 233.3 771.5 228.2C771.5 223.1 774.9 207.2 779.1 207.2C783.3 207.3 786.7 223.1 786.7 228.2Z" stroke="#A98973" stroke-width="2" stroke-miterlimit="10"/>
<path d="M779.2 209.6L781.3 247.6H776.9L779 209.6H779.2Z" fill="#A98973"/>
<path d="M751.9 244.3C751.9 249.4 748.5 251.2 744.3 251.2C740.1 251.2 736.7 249.4 736.7 244.3C736.7 239.2 740.1 223.3 744.3 223.3C748.5 223.3 751.9 239.2 751.9 244.3Z" stroke="#A98973" stroke-width="2" stroke-miterlimit="10"/>
<path d="M744.4 225.6L746.5 263.6H742.1L744.2 225.6H744.4Z" fill="#A98973"/>
<path d="M761.7 206.1C761.7 211.2 758.3 213 754.1 213C749.9 213 746.5 211.2 746.5 206.1C746.5 201 749.9 185.1 754.1 185.1C758.3 185.2 761.7 201 761.7 206.1Z" stroke="#A98973" stroke-width="2" stroke-miterlimit="10"/>
<path d="M754.2 187.5L756.3 225.5H751.9L754.1 187.5H754.2Z" fill="#A98973"/>
<path d="M733.3 199.4C733.3 204.5 729.9 206.3 725.7 206.3C721.5 206.3 718.1 204.5 718.1 199.4C718.1 194.3 721.5 178.4 725.7 178.4C729.9 178.5 733.3 194.3 733.3 199.4Z" stroke="#A98973" stroke-width="2" stroke-miterlimit="10"/>
<path d="M725.8 180.8L727.9 218.8H723.5L725.6 180.8H725.8Z" fill="#A98973"/>
<path d="M350.4 195C350.4 200.1 347 201.9 342.8 201.9C338.6 201.9 335.2 200.1 335.2 195C335.2 189.9 338.6 174 342.8 174C347 174.1 350.4 189.9 350.4 195Z" stroke="#A98973" stroke-width="2" stroke-miterlimit="10"/>
<path d="M342.9 176.4L345 214.4H340.6L342.8 176.4H342.9Z" fill="#A98973"/>
<path d="M305.2 204C305.2 209.1 301.8 210.9 297.6 210.9C293.4 210.9 290 209.1 290 204C290 198.9 293.4 183 297.6 183C301.8 183 305.2 198.9 305.2 204Z" stroke="#A98973" stroke-width="2" stroke-miterlimit="10"/>
<path d="M297.7 185.3L299.8 223.3H295.4L297.5 185.3H297.7Z" fill="#A98973"/>
<path d="M330.7 211C330.7 216.1 327.3 217.9 323.1 217.9C318.9 217.9 315.5 216.1 315.5 211C315.5 205.9 318.9 190 323.1 190C327.3 190 330.7 205.9 330.7 211Z" stroke="#A98973" stroke-width="2" stroke-miterlimit="10"/>
<path d="M323.1 192.4L325.3 230.4H320.9L323 192.4H323.1Z" fill="#A98973"/>
<path d="M202.2 79.4999C202.3 79.4999 202.4 79.4999 202.5 79.4999C202.9 77.1999 204.9 75.3999 207.3 75.3999C207.8 75.3999 208.3 75.4999 208.8 75.5999C209.7 72.3999 212.6 70.0999 216 70.0999C219.4 70.0999 222.3 72.3999 223.2 75.4999C223.6 75.3999 224 75.2999 224.4 75.2999C226.8 75.2999 228.9 77.0999 229.2 79.3999C229.4 79.3999 229.6 79.2999 229.8 79.2999C231.4 79.2999 232.7 80.5999 232.7 82.1999C232.7 83.7999 231.4 85.0999 229.8 85.0999H202C200.4 85.0999 199.1 83.7999 199.1 82.1999C199.3 80.7999 200.6 79.4999 202.2 79.4999Z" stroke="#A98973" stroke-width="2" stroke-miterlimit="10"/>
<path d="M334.5 255.4C334.6 255.4 334.7 255.4 334.8 255.4C335.2 253.1 337.2 251.3 339.6 251.3C340.1 251.3 340.6 251.4 341.1 251.5C342 248.3 344.9 246 348.3 246C351.7 246 354.6 248.3 355.5 251.4C355.9 251.3 356.3 251.2 356.7 251.2C359.1 251.2 361.2 253 361.5 255.3C361.7 255.3 361.9 255.2 362.1 255.2C363.7 255.2 365 256.5 365 258.1C365 259.7 363.7 261 362.1 261H334.3C332.7 261 331.4 259.7 331.4 258.1C331.6 256.7 332.9 255.4 334.5 255.4Z" stroke="#A98973" stroke-width="2" stroke-miterlimit="10"/>
<path d="M309.2 238.7C309.3 238.7 309.4 238.7 309.5 238.7C309.9 236.4 311.9 234.6 314.3 234.6C314.8 234.6 315.3 234.7 315.8 234.8C316.7 231.6 319.6 229.3 323 229.3C326.4 229.3 329.3 231.6 330.2 234.7C330.6 234.6 331 234.5 331.4 234.5C333.8 234.5 335.9 236.3 336.2 238.6C336.4 238.6 336.6 238.5 336.8 238.5C338.4 238.5 339.7 239.8 339.7 241.4C339.7 243 338.4 244.3 336.8 244.3H309C307.4 244.3 306.1 243 306.1 241.4C306.3 240 307.6 238.7 309.2 238.7Z" stroke="#A98973" stroke-width="2" stroke-miterlimit="10"/>
<path d="M1047.9 213C1047.9 205.5 1040.2 199.2 1029.7 197.3C1025.6 196.6 1021.7 195.3 1018.1 193.2C1011 189.1 1001.8 186.6 991.6 186.6C969.4 186.6 951.5 198.4 951.5 213C951.5 227.6 969.5 239.4 991.6 239.4C1004.4 239.4 1015.7 235.5 1023.1 229.4C1036.7 229.4 1047.9 222.1 1047.9 213Z" stroke="#A98973" stroke-width="2" stroke-miterlimit="10"/>
<path d="M958.8 214.3C963.2 214.3 963.2 216.3 967.7 216.3C972.1 216.3 972.1 214.3 976.6 214.3C981 214.3 981 216.3 985.5 216.3C989.9 216.3 989.9 214.3 994.4 214.3C998.9 214.3 998.8 216.3 1003.3 216.3" stroke="#A98973" stroke-width="2" stroke-miterlimit="10"/>
<path d="M985 203.2C989.4 203.2 989.4 205.2 993.9 205.2C998.3 205.2 998.3 203.2 1002.8 203.2C1007.2 203.2 1007.2 205.2 1011.7 205.2C1016.1 205.2 1016.1 203.2 1020.6 203.2C1025 203.2 1025 205.2 1029.5 205.2" stroke="#A98973" stroke-width="2" stroke-miterlimit="10"/>
<path d="M983.7 224.1C986.9 224.1 986.9 226.1 990.1 226.1C993.3 226.1 993.3 224.1 996.5 224.1C999.7 224.1 999.7 226.1 1002.9 226.1C1006.1 226.1 1006.1 224.1 1009.3 224.1C1012.5 224.1 1012.5 226.1 1015.7 226.1" stroke="#A98973" stroke-width="2" stroke-miterlimit="10"/>
<path d="M71.1001 180.8C101.5 244.2 167.4 220.5 235.6 167.2C303.8 113.9 322.8 66.1 396.8 72.8C470.8 79.5 514.8 334.2 633.8 244.7C706 190.4 748.9 114.7 818.3 130.6C908.1 151.2 965.4 292.8 1029.5 261.2C1093.6 229.6 1110.4 130.6 1110.4 130.6" stroke="#8E725F" stroke-width="4" stroke-miterlimit="10" stroke-dasharray="12 12"/>
<path d="M70.5245 185.44C77.3412 182.559 80.5317 174.697 77.6506 167.88C74.7696 161.064 66.908 157.873 60.0913 160.754C53.2746 163.635 50.0841 171.497 52.9652 178.313C55.8462 185.13 63.7078 188.321 70.5245 185.44Z" fill="white"/>
<path d="M1156.83 118.718C1160.45 97.3715 1146.07 77.1375 1124.73 73.5242C1103.38 69.9109 1083.15 84.2866 1079.53 105.633C1075.92 126.979 1090.29 147.213 1111.64 150.827C1132.99 154.44 1153.22 140.064 1156.83 118.718Z" fill="white"/>
<path d="M1099.9 93.8999L1136.5 130.5" stroke="#FF5A5A" stroke-width="5" stroke-miterlimit="10"/>
<path d="M1136.5 93.8999L1099.9 130.5" stroke="#FF5A5A" stroke-width="5" stroke-miterlimit="10"/>
<path d="M396.7 93.5001C408.132 93.5001 417.4 84.2324 417.4 72.8001C417.4 61.3678 408.132 52.1001 396.7 52.1001C385.268 52.1001 376 61.3678 376 72.8001C376 84.2324 385.268 93.5001 396.7 93.5001Z" fill="white"/>
<path d="M387.1 63.1001L406.4 82.4001" stroke="#FF5A5A" stroke-width="5" stroke-miterlimit="10"/>
<path d="M406.4 63.1001L387.1 82.4001" stroke="#FF5A5A" stroke-width="5" stroke-miterlimit="10"/>
<path d="M633.7 265.3C645.132 265.3 654.4 256.032 654.4 244.6C654.4 233.168 645.132 223.9 633.7 223.9C622.268 223.9 613 233.168 613 244.6C613 256.032 622.268 265.3 633.7 265.3Z" fill="white"/>
<path d="M624 235L643.3 254.3" stroke="#FF5A5A" stroke-width="5" stroke-miterlimit="10"/>
<path d="M643.3 235L624 254.3" stroke="#FF5A5A" stroke-width="5" stroke-miterlimit="10"/>
</g>
<defs>
<clipPath id="clip0_33693_22987">
<rect width="1226" height="298" fill="white"/>
</clipPath>
</defs>
</svg>
