<svg xmlns="http://www.w3.org/2000/svg" id="hide-and-seek" version="1.1" viewBox="0 0 26 14"><style>:root{--body-right:path('M22.412 14.004H2.928c0-2.893 12.692-8.3 18.06-8.3 5.37 0 2.202 5.396 1.424 8.3z');--body-left:path('M22.412 14.004H2.928c-1.574-2.726-3.53-8.3 1.839-8.3 5.37 0 17.645 5.34 17.645 8.3z');--body-small:path('M22.412 14.004H2.928c0-1.553 4.353-4.457 9.722-4.457 5.37 0 9.762 2.868 9.762 4.457z');--left-eye-right:path('M17.358 11.135a1.293 2.092 0 0 1-1.293 2.092 1.293 2.092 0 0 1-1.293-2.092 1.293 2.092 0 0 1 1.293-2.092 1.293 2.092 0 0 1 1.293 2.092z');--left-eye-left:path('M5.511 11.135a1.293 2.092 0 0 1-1.293 2.092 1.293 2.092 0 0 1-1.293-2.092 1.293 2.092 0 0 1 1.293-2.092 1.293 2.092 0 0 1 1.293 2.092Z');--left-eye-small:path('M11.748 11.853a1.293 2.092 0 0 1-1.293 2.092 1.293 2.092 0 0 1-1.293-2.092 1.293 2.092 0 0 1 1.293-2.092 1.293 2.092 0 0 1 1.293 2.092Z');--left-pupil-right:path('M17.374 10.675a.525.606 0 0 1-.525.606.525.606 0 0 1-.525-.606.525.606 0 0 1 .525-.606.525.606 0 0 1 .525.606z');--left-pupil-left:path('M3.908 10.512a.525.606 0 0 1-.525.606.525.606 0 0 1-.525-.606.525.606 0 0 1 .525-.606.525.606 0 0 1 .525.606z');--left-pupil-small:path('M11.262 12.872a.525.606 0 0 1-.525.606.525.606 0 0 1-.525-.606.525.606 0 0 1 .525-.606.525.606 0 0 1 .525.606z');--right-eye-right:path('M21.497 11.122a1.293 2.092 0 0 1-1.293 2.092 1.293 2.092 0 0 1-1.293-2.092 1.293 2.092 0 0 1 1.293-2.092 1.293 2.092 0 0 1 1.293 2.092Z');--right-eye-left:path('M9.65 11.122a1.293 2.092 0 0 1-1.293 2.092 1.293 2.092 0 0 1-1.293-2.092A1.293 2.092 0 0 1 8.357 9.03a1.293 2.092 0 0 1 1.293 2.092Z');--right-eye-small:path('M15.887 11.84a1.293 2.092 0 0 1-1.293 2.092 1.293 2.092 0 0 1-1.293-2.092 1.293 2.092 0 0 1 1.293-2.092 1.293 2.092 0 0 1 1.293 2.092Z');--right-pupil-right:path('M21.513 10.568a.525.606 0 0 1-.525.606.525.606 0 0 1-.525-.606.525.606 0 0 1 .525-.606.525.606 0 0 1 .525.606z');--right-pupil-left:path('M8.067 10.593a.525.606 0 0 1-.525.606.525.606 0 0 1-.525-.606.525.606 0 0 1 .525-.606.525.606 0 0 1 .525.606z');--right-pupil-small:path('M14.665 12.888a.525.606 0 0 1-.525.606.525.606 0 0 1-.525-.606.525.606 0 0 1 .525-.606.525.606 0 0 1 .525.606z');--color-black:#000;--color-white:#fff}@keyframes morphing-body{0%,100%,20%,80%{d:var(--body-small)}25%,52%{d:var(--body-right)}58%,75%{d:var(--body-left)}}@keyframes morphing-left_eye{0%,100%,20%,80%{d:var(--left-eye-small)}25%,52%{d:var(--left-eye-right)}58%,75%{d:var(--left-eye-left)}}@keyframes morphing-right_eye{0%,100%,20%,80%{d:var(--right-eye-small)}25%,52%{d:var(--right-eye-right)}58%,75%{d:var(--right-eye-left)}}@keyframes morphing-left_pupil{0%,100%,20%,80%{d:var(--left-pupil-small)}25%,52%{d:var(--left-pupil-right)}58%,75%{d:var(--left-pupil-left)}}@keyframes morphing-right_pupil{0%,100%,20%,80%{d:var(--right-pupil-small)}25%,52%{d:var(--right-pupil-right)}58%,75%{d:var(--right-pupil-left)}}@keyframes fillColor{0%,15%,16.5%,40%,41.5%,65%,66.5%,99.3%{fill:var(--color-white)}100%,15.5%,16%,40.5%,41%,65.5%,66%,99.8%{fill:var(--color-black)}}#morphing-body{animation:10s ease-in-out infinite alternate morphing-body}#morphing-left_eye{animation:10s ease-in-out infinite alternate morphing-left_eye,20s ease-in-out infinite alternate fillColor}#morphing-right_eye{animation:10s ease-in-out infinite alternate morphing-right_eye,20s ease-in-out infinite alternate fillColor}#morphing-left_pupil{animation:10s ease-in-out infinite alternate morphing-left_pupil}#morphing-right_pupil{animation:10s ease-in-out infinite alternate morphing-right_pupil}</style><path id="morphing-body" fill="#000" d="M22.412 14.004H2.928c0-1.553 4.353-4.457 9.722-4.457 5.37 0 9.762 2.868 9.762 4.457z"/><path id="morphing-left_eye" fill="#fff" d="M11.748 11.853a1.293 2.092 0 0 1-1.293 2.092 1.293 2.092 0 0 1-1.293-2.092 1.293 2.092 0 0 1 1.293-2.092 1.293 2.092 0 0 1 1.293 2.092Z"/><path id="morphing-right_eye" fill="#fff" d="M15.887 11.84a1.293 2.092 0 0 1-1.293 2.092 1.293 2.092 0 0 1-1.293-2.092 1.293 2.092 0 0 1 1.293-2.092 1.293 2.092 0 0 1 1.293 2.092Z"/><path id="morphing-left_pupil" d="M11.262 12.872a.525.606 0 0 1-.525.606.525.606 0 0 1-.525-.606.525.606 0 0 1 .525-.606.525.606 0 0 1 .525.606z"/><path id="morphing-right_pupil" d="M14.665 12.888a.525.606 0 0 1-.525.606.525.606 0 0 1-.525-.606.525.606 0 0 1 .525-.606.525.606 0 0 1 .525.606z"/></svg>
