<svg xmlns="http://www.w3.org/2000/svg" viewBox="0 0 210 145">
  <g stroke="#000" fill="none" stroke-width="4">
    <path d="M9.3228298 126.20837235 28.37866942 9.75591815 85.54621858 20.3425462 139.0084479 7.10926114l58.2262271 9.52791981-19.05591533 114.86442971-58.22615139-10.05723607-55.05023869 13.23320934z" />
	<path d="M158.85163695 86.5020815h14.56956065v.27787022h-14.56956065z" />
	<path d="M166.6489629 78.60541885v15.3505501h-.2642417v-15.3505501z" />
	<path d="M167.0629668 84.39132786c-2.2055475-12.61568632-4.41109502-25.23106979-12.9687405-34.36217276-8.55772119-9.13117869-23.46655607-14.7770926-39.2725256.89115325-15.80604524 15.66824585-32.5073323 52.64883432-44.85861034 55.42791504-12.3512932 2.779005-20.35118425-28.64455774-28.35118888-60.06857477" stroke-dasharray="7 7"  />
	<path d="M40.81785895 38.10223862c2.91741768 0 5.26609485 2.34864689 5.26609485 5.26613272 0 2.91741011-2.34867717 5.266057-5.26609485 5.266057-2.91742526 0-5.26610243-2.34864689-5.26610243-5.266057 0-2.91748583 2.34867717-5.26613272 5.26610243-5.26613272z" />
	<path d="M65.9610324 134.14826767 85.2815226 20.60716647zm54.25619616-13.36555733L139.2731439 8.30024165z" />
  </g>
</svg>
