<svg xmlns="http://www.w3.org/2000/svg" height="100%" width="700px" version="1.1" viewBox="-820 0 1000 770"><path d="M436.6 504c-4.5 5.1-10.5 7.9-17 7.9-9.1 0-18.5-5.5-24.4-14.4-7.8-11.6-15.5-21.2-22.3-27.9l-4.8-4.7c-2-2-1.1-5.3 1.6-6.1l6.5-1.7c3.2-.9 6.4-2.7 9.1-5.5 3-3 4.8-6.7 5.2-10.4V430c0-1.3 1.5-2.1 2.5-1.3l9.3 6.9c.7.5 1.7 1.1 2.9 1.7 10.2 4.9 31.7 27.4 35.7 46.7 2.1 10.1-1.2 16.5-4.3 20z"></path><path fill="#f4e3d7" d="M402.1 444.1c-1.5-.7-2.9-1.5-4.2-2.4-.5 5.5-3 11-7.3 15.3-3.7 3.7-8.1 6.2-12.5 7.4 8.7 8.6 17 19.8 23.2 29.1 4.5 6.7 11.6 11.1 18.3 11.1 4.1 0 8.1-1.6 11.4-5.4 13-14.8-17.3-49.6-28.9-55.1z"></path><path d="M436.59 504.77c-4.5 5.1-10.5 7.9-17 7.9-9.1 0-18.5-5.5-24.4-14.4-7.8-11.6-15.5-21.2-22.3-27.9l-4.8-4.7c-2-2-1.1-5.3 1.6-6.1l6.5-1.7c3.2-.9 6.4-2.7 9.1-5.5 3-3 4.8-6.7 5.2-10.4v-11.2c0-1.3 1.5-2.1 2.5-1.3l9.3 6.9c.7.5 1.7 1.1 2.9 1.7 10.2 4.9 31.7 27.4 35.7 46.7 2.1 10.1-1.2 16.5-4.3 20z"></path><path fill="#0073AA" d="M402.09 444.87q-2.3-1-4.2-2.4c-.5 5.5-3 11-7.3 15.3-3.7 3.7-8.1 6.2-12.5 7.4 8.7 8.6 17 19.8 23.2 29.1 4.5 6.7 11.6 11.1 18.3 11.1 4.1 0 8.1-1.6 11.4-5.4 13-14.8-17.3-49.6-28.9-55.1z"></path><g style="transform-origin:55% 63%;animation:Tail--group 3s 22s 2 normal ease-in-out forwards"><path d="M599.1 649.5c-9 25.7-26.4 50-50.3 70.3-23.8 20.3-51.8 34.7-81 41.6-6.9 1.6-14.1 2.5-21.5 2.5-30.8 0-58.9-13.9-74.8-27-13.6-11.1-21.2-23.3-20.9-33.5.4-12 6.7-20.7 16.8-23.3 2.1-.5 4.3-.8 6.7-.8 11.2 0 27.2 6.7 38.5 25.7 7.8 13.2 22 20.1 41.1 20.1h1.2c40.7-.8 87.6-31.2 109.1-70.8 7.7-14.1 13.2-29.6 17.1-40.8 1.9-5.4 3.6-10.1 5.1-13.5 1.3-3.1 4.1-9.4 10.4-9.4 4.1 0 7.6 1.8 9.9 5 5.5 7.6 3.3 23.3-7.4 53.9z"></path><path fill="maroon" d="M570.5 657.8c-22.7 41.7-72.5 73.9-115.5 74.7h-1.4c-21.6 0-38.3-8.4-47.4-23.8-9-15.1-22-22.1-32.1-22.1-1.7 0-3.3.2-4.8.6-7 1.8-11 7.6-11.3 16.4-.3 7.7 6.6 18 18.2 27.5 16.8 13.7 43.2 25.3 70.1 25.3 6.6 0 13.3-.7 19.8-2.3 57.2-13.5 108.5-57.4 126-107.1 5.4-15.3 16.7-49.2 4.5-49.2-4.5.1-10.8 31.8-26.1 60z"></path></g><path d="M649.7 531.9c-2 24-6.7 45.1-13.9 62.9-8.5 20.9-20.3 36.6-35.1 46.8-34 23.4-64.8 26-76.4 26-1.3 0-2.5 0-3.8-.1-18.4-.8-26-4.4-32.7-7.5-5.9-2.8-11-5.2-24.9-5.7-37.5-1.5-67-9.9-83.1-23.6-.2-.1-.5-.4-.9-.7-4.8-3.5-19.3-14.3-25-24.7-5.3-9.7-6.2-22.3-2.3-31.4 13.4-31.2 24.5-40.5 33.5-48 3.6-3 6.4-5.3 8.8-8.7 2.2-3.1 3.8-7.1 4.9-12.2 0-.1 0-.2.1-.3 3.9-15 3.4-34.9 2.8-56-.2-5.7-.3-11.7-.4-17.5v-.1c0-18.6 9.6-40.7 25.7-59.2 18.1-20.8 41.6-33.6 66.1-36.2 20.2-2.1 34.3-3.1 45.9-3.1 43.7 0 58.6 14.8 82.2 48.4 7.5 10.6 12.1 22.5 16 33.7 11.1 30.4 15.9 76.5 12.5 117.2z"></path><path fill="#f4e3d7" d="M358.5 576.7c-3 7-2.2 17.4 2 25 5.6 10.3 23 22.2 24.1 23.2 15.1 12.9 43.7 20.5 78.7 21.9 31.2 1.3 24.3 11.8 57.6 13.3 1.1 0 2.2.1 3.5.1 16.7 0 43.7-5 72.2-24.7 58-39.9 52.9-165.3 34-218.6-3.9-11.1-8.3-22.2-15.1-31.9-23.5-33.5-36.6-45.2-76.2-45.2-12.2 0-26.9 1.1-45.1 3.1-49.9 5.3-85.3 55.3-85.3 88.1.3 27.4 2.5 55.1-2.7 75.5-1.4 6.5-3.4 11.2-6 14.9-9.8 13.5-23.4 12.4-41.7 55.3z"></path><path d="M401.886 436.443h-.2c-.9 0-1.6.7-1.6 1.6 1.3 44.5-28.9 84.7-25.3 97.1.2.7.8 1.1 1.5 1.1.3 0 .6-.1.9-.2 8.2-5.1 26.3-8.6 54.7-8.6 12.5 0 26.9.7 43.3 2.2 104 9.6 155.8 30.3 167 48.4.3.5.8.8 1.4.8.7 0 1.4-.5 1.6-1.3 13-68 4.6-129.1-8.1-170.5-.2-.7-.8-1.1-1.5-1.1h-.4c-93.523 41.432-152.27 38.548-233.3 30.5z"></path><path fill="#0073AA" d="M410.786 445.143c-1-.134-2-.234-3-.3-.9 25.8-10.8 49.4-18.2 67-1.8 4.3-4 9.5-5.5 13.8 13.8-4.2 32.9-5.2 48.1-5.2 13.2 0 28 .7 44 2.2 49.1 4.5 89.4 11.7 119.9 21.3 20 6.3 34.7 13.4 44.1 21.1 10.5-66.5.1-120.7-8.4-150.4-79.614 34.164-122.39 37.206-221 30.5z"></path><path fill="#c59b50" d="M567.818 529.766s-142.795-76.631-162.937-112.233l-2.664 39.146s108.371 72.236 153.712 88.115c45.34 15.88 11.89-15.028 11.89-15.028"></path><path fill="#100f0d" d="M406.094 454.765c14.333 9.465 109.87 72.073 151.072 86.503 10.206 3.574 15.23 4.326 17.648 4.326.428 0 .762-.025 1.014-.054-.828-2.5-5.276-8.085-10.205-12.708-9.465-5.096-124.652-67.518-157.701-104.937Zm168.72 98.306c-4.421 0-11.003-1.553-20.121-4.745-45.267-15.858-150.107-85.577-154.55-88.535a3.742 3.742 0 0 1-1.655-3.364l2.662-39.149a3.738 3.738 0 0 1 2.901-3.391 3.74 3.74 0 0 1 4.083 1.804c19.384 34.261 160.036 110.021 161.451 110.784.28.15.538.334.768.548 5.796 5.353 15.144 15.289 12.642 21.686-.78 1.99-2.83 4.362-8.181 4.362"></path><g style="transform-origin:37% 64%;animation:RightFoot--group 3s 12s 2 normal linear forwards"><path d="M384.3 648c-2.4 3.7-6.4 5.7-11.5 5.7-1.9 0-4-.3-6.2-.8-25-6-59.3-43.6-63.6-64.5-1.9-9.4-.2-18 5-24.4 4.6-5.7 11.4-8.8 18.9-8.8 6.8 0 13.6 2.5 19.8 7.3 12.2 9.4 32.9 50.5 37.3 60.7 2.5 5.8 4.9 17.7.3 24.8z"></path><path fill="#f4e3d7" d="M310.1 586.8c3.8 18.2 36.2 53.6 58.1 58.8 1.7.4 3.2.6 4.5.6 3.4 0 4.7-1.3 5.4-2.3 2.3-3.5 1.5-12.1-1-17.9-6.1-13.9-25.3-50.3-35.1-57.8-4.9-3.8-10.2-5.8-15.3-5.8-5.3 0-10 2.2-13.2 6.1-3.6 4.7-4.8 11.2-3.4 18.3z"></path><path fill="#4B351F" stroke="#000" stroke-width="7" d="M384.3 648c-2.4 3.7-6.4 5.7-11.5 5.7-1.9 0-4-.3-6.2-.8-25-6-59.3-43.6-63.6-64.5-1.9-9.4-.2-18 5-24.4 4.6-5.7 11.4-8.8 18.9-8.8 6.8 0 13.6 2.5 19.8 7.3 12.2 9.4 32.9 50.5 37.3 60.7 2.5 5.8 4.9 17.7.3 24.8z"></path><path d="M309.6 580.6c-.5 0-1-.2-1.3-.7-.5-.7-.3-1.6.4-2.1l23.9-15.6c.7-.5 1.6-.3 2.1.4s.3 1.6-.4 2.1l-23.9 15.6c-.2.2-.5.3-.8.3zm2.2 10.6 32-20.9c.7-.5.9-1.4.4-2.1s-1.4-.9-2.1-.4l-32 20.9c-.7.5-.9 1.4-.4 2.1.3.4.8.7 1.3.7.2-.1.5-.2.8-.3zm4.2 8.9 34.2-22.3c.7-.5.9-1.4.4-2.1s-1.4-.9-2.1-.4l-34.2 22.3c-.7.5-.9 1.4-.4 2.1.3.4.8.7 1.3.7.3-.1.5-.1.8-.3zm5.3 8.2 34.3-22.4c.7-.5.9-1.4.4-2.1s-1.4-.9-2.1-.4l-34.3 22.4c-.7.5-.9 1.4-.4 2.1.3.4.8.7 1.3.7.3-.1.6-.2.8-.3zm6.1 7.7 33.3-21.8c.7-.5.9-1.4.4-2.1s-1.4-.9-2.1-.4l-33.3 21.8c-.7.5-.9 1.4-.4 2.1.3.4.8.7 1.3.7.3-.1.6-.2.8-.3zm6.7 7.3 31.5-20.5c.7-.5.9-1.4.4-2.1s-1.4-.9-2.1-.4l-31.5 20.5c-.7.5-.9 1.4-.4 2.1.3.4.8.7 1.3.7.3-.1.5-.2.8-.3zm7.3 6.9 28.8-18.8c.7-.5.9-1.4.4-2.1s-1.4-.9-2.1-.4l-28.8 18.8c-.7.5-.9 1.4-.4 2.1.3.4.8.7 1.3.7.2-.1.5-.1.8-.3zm7.9 6.5 25.3-16.5c.7-.5.9-1.4.4-2.1s-1.4-.9-2.1-.4l-25.3 16.5c-.7.5-.9 1.4-.4 2.1.3.4.8.7 1.3.7.3-.1.6-.2.8-.3zm9 5.8 20.4-13.3c.7-.5.9-1.4.4-2.1s-1.4-.9-2.1-.4L356.7 640c-.7.5-.9 1.4-.4 2.1.3.4.8.7 1.3.7.2-.1.5-.2.7-.3zm11.1 4.4 10.9-7.1c.7-.5.9-1.4.4-2.1s-1.4-.9-2.1-.4l-10.9 7.1c-.7.5-.9 1.4-.4 2.1.3.4.8.7 1.3.7.2 0 .5-.1.8-.3z"></path></g><g style="transform-origin:41% 40%;animation:RightEar--group .1s 2s 2 normal linear forwards"><path d="M413.3 399.4c-.4 4.4-3.8 8.4-11.1 12.9-4.7 3-10.2 5.5-13.9 6.5-6.5 1.7-12.3 2.6-17.3 2.6-6.7 0-10.6-1.6-12.7-2.9-4.8-3-4.4-7.2-4.2-8.5.5-3.1 2.9-5.5 5.9-6.2 3.5-.8 13.5-5.8 23.6-12.6 4.2-2.9 10.7-4.8 16.1-4.8 5.8 0 9.1 2.2 10.8 4.1 2.1 2.4 3.1 5.5 2.8 8.9z"></path><path fill="#c8beb7" d="M361.4 411.3c0 .3.4.7.9.9 1.1.7 3.6 1.8 8.8 1.8 4.3 0 9.5-.8 15.4-2.3 5.2-1.4 19.1-8.8 19.5-13 .1-1.3-.2-2.4-.9-3.2-1-1.1-2.8-1.7-5.3-1.7-3.9 0-8.9 1.5-11.9 3.5-8.5 5.7-20.5 12.5-26.1 13.7-.3.1-.4.2-.4.3z"></path></g><path d="M516.4 328.1c1.6 0 3.2 0 4.8.1 20.6.6 39.5 6.5 55.9 17 11.2 7.2 17.5 11.4 25.9 25.2 1.5 2.5 9 .8 7.9-1.1-10.1-17.6-17.5-22.3-29.8-30.3-17.7-11.4-37.8-17.6-59.7-18.2-1.6 0-3.3-.1-5-.1-1.6 0-3.3 0-4.9.1-24.3.6-47.8 6.6-67.8 17.1-20.2 10.6-37.1 26.1-48.9 44.7-7.7 12.3-10.3 23.9-7.4 33.5 2.4 7.8 7.9 12.7 12.3 14.6 1.4.6 2.9.9 4.7.9 9.3 0 34.7-9.3 45.7-24.8 8.4 4.5 17.6 6.7 28.1 6.7 12.6 0 25-3.2 36.4-6.9 3-1 3.8-2.2 3.9-4.1 0-1.3-1.2-3.6-3.8-3.5-.3 0-.7.1-1 .2-11.2 3.6-23.3 6.9-35.4 6.9-9.3 0-18.6-2-27.4-7.4-.6-.4-1.3-.5-1.9-.5-1.3 0-2.5.6-3.2 1.8l-.1.1c-7.9 14.3-33.3 24.1-41.2 24.1-.7 0-1.3-.1-1.7-.3-2.8-1.2-6.6-4.6-8.2-10-2.3-7.5 0-17 6.6-27.4 22.5-35.7 63.4-57.1 110.6-58.3 1.4-.1 3-.1 4.6-.1"></path><path fill="#f4e3d7" d="M516.6 399.4c-1-.4-2-.7-3-.3-19.7 6.3-42.5 12-62.8-.5-1.7-1.1-4-.5-5.1 1.2l-.1.1c-8.6 15.7-38.3 26-43 23.9-2.8-1.2-6.6-4.6-8.2-10-2.3-7.5 0-17 6.6-27.4 22.5-35.7 63.4-57.1 110.6-58.3 3.1-.1 6.3-.1 9.5 0 20.6.6 39.5 6.5 55.9 17 13.2 8.5 19.7 12.7 30.6 33.6 5.6 10.5-84.4 23.5-91 20.7z"></path><path d="M401.367 1739.18s128.473 248.46 180.02 258.98c51.551 10.52 185.441 39.49 296.429 12.9 101.52-24.33 182.874-226.04 182.874-226.04l-659.323-45.84" style="fill:#383333;fill-opacity:1;fill-rule:nonzero;stroke:none" transform="matrix(.26512 0 0 -.26512 306.781 800.727)"></path><path d="M775.016 2006.99c-75.887 0-147.391-14.66-185.809-22.54l-4.824-.99c-25.625-5.23-98.653-117.86-157.223-227.44l611.26 42.48c-22.72 49.63-88.822 179.93-164.096 197.97-29.133 6.98-62.539 10.52-99.308 10.52zm-373.657-282.8c-5.023 0-9.746 2.52-12.531 6.76a15.01 15.01 0 0 0-.789 15.13c30.914 59.78 136 255.69 190.348 266.78l4.793.98c39.465 8.09 112.91 23.15 191.836 23.15 39.121 0 74.882-3.82 106.3-11.35 107.793-25.83 189.844-226.49 193.294-235.01 1.78-4.46 1.34-9.5-1.2-13.57a14.98 14.98 0 0 0-11.68-7.01l-659.328-45.83c-.343-.02-.695-.03-1.043-.03" style="fill:#100f0d;fill-opacity:1;fill-rule:nonzero;stroke:none" transform="matrix(.26512 0 0 -.26512 306.781 800.727)"></path><path d="m1051.24 1807.5-649.873-68.32 61.578 102.59s133.711 114.96 532.391 58.3l55.904-92.57" style="fill:#8f4149;fill-opacity:1;fill-rule:nonzero;stroke:none" transform="matrix(.26512 0 0 -.26512 306.781 800.727)"></path><path d="m474.367 1831.66-44.668-74.41 596.501 62.7-40.012 66.25c-70 9.67-136.336 14.57-197.274 14.57-212.316 0-301.484-59.47-314.547-69.11zm-73.008-107.47c-5.082 0-9.875 2.58-12.644 6.94a15 15 0 0 0-.211 15.78l61.582 102.59a14.99 14.99 0 0 0 3.086 3.65c3.687 3.17 93.086 77.62 335.742 77.62 64.383 0 134.551-5.34 208.535-15.86a14.946 14.946 0 0 0 10.731-7.09l55.9-92.57a14.99 14.99 0 0 0 .59-14.43c-2.29-4.6-6.76-7.7-11.86-8.24l-649.876-68.31c-.532-.05-1.051-.08-1.575-.08" style="fill:#100f0d;fill-opacity:1;fill-rule:nonzero;stroke:none" transform="matrix(.26512 0 0 -.26512 306.781 800.727)"></path><path d="M1018.26 1813.11c-73.885 14.44-168.049 25.15-253.662 22.03-174.614-6.34-412.086-103.43-478.91-164.8-66.825-61.38 90.003-53.2 90.003-53.2l56.532 56.12s259.449 119.16 552.113 73.79c0 0 100.374-72.62 128.014-74.3 263.83-16.02-20.2 125.92-94.09 140.36" style="fill:#383333;fill-opacity:1;fill-rule:nonzero;stroke:none" transform="matrix(.26512 0 0 -.26512 306.781 800.727)"></path><path d="M795.152 1820.69c-10.086 0-20.105-.17-30.007-.54-169.075-6.14-404.934-101.73-469.309-160.86-11.328-10.4-11.719-15.24-11.723-15.28 1.77-2.77 19.524-12.23 74.285-12.23 4.36 0 8.082.06 10.887.14l52.371 51.98a14.913 14.913 0 0 0 4.309 2.99c7.598 3.49 188.769 85.46 421.426 85.46 47.527 0 94.375-3.53 139.238-10.48 2.344-.37 4.57-1.28 6.492-2.67 46.579-33.7 105.759-70.61 120.139-71.48 13.44-.82 25.79-1.23 36.7-1.23h.02c43.26 0 54.84 6.57 57.27 8.46-5.18 23.17-131.81 91.7-191.87 103.44-42.591 8.33-127.845 22.3-220.228 22.3zm-436.754-218.91c-89.949 0-99.269 23.92-102.332 31.78-5.699 14.63.856 30.72 19.477 47.83 67.328 61.84 307.434 162.16 488.508 168.75 10.262.37 20.644.55 31.101.55 94.914 0 182.325-14.32 225.988-22.85 38.74-7.58 221.47-81.15 216.12-136.45-3-30.93-48.21-34.9-87.27-34.9h-.03c-11.52 0-24.47.43-38.52 1.29-28.58 1.73-105.52 55.27-132.948 74.98-42.265 6.37-86.355 9.59-131.101 9.59-212.207 0-384.602-72.1-406.559-81.68l-54.574-54.17a15.045 15.045 0 0 0-9.785-4.34s-7.258-.38-18.075-.38" style="display:inline;fill:#100f0d;fill-opacity:1;fill-rule:nonzero;stroke:none" transform="matrix(.26512 0 0 -.26512 306.781 800.727)"></path><g style="transform-origin:58% 35%;animation:LeftEar--group .1s 2s 2 normal linear forwards"><path d="M701.4 357.1c-.5 1.7-1.2 3.4-2 5.2-5 10-17.7 23-38 29.1-4.5 1.4-9.3 2-14 2h-.1c-13 0-34.2-4.9-61.6-28.3-1.9-1.7-5.1-4.8-7.1-7-2.3-2.5-2.8-6.1-1.5-9.1s4.4-5.1 7.8-5.1h.5c13.9.8 30.1 1.2 48.4 1.2 8.1 0 14.8-.1 19.3-.1h4.5c7.4 0 13.3-.1 18.2-.1 8.1 0 13.7.1 17.1.2 2.9.1 5.6 1.5 7.3 3.9 1.5 2.3 2 5.2 1.2 8.1z"></path><path fill="#c8beb7" d="M590.4 359.4c25.7 21.9 45.1 26.5 56.8 26.5h.1c4 0 8-.6 11.9-1.7 18.1-5.4 29.2-16.6 33.5-25.3.8-1.5 1.2-2.8 1.5-3.9.4-1.3-.6-2.6-1.9-2.7-3.3-.1-8.9-.2-16.7-.2-5.4 0-11.6 0-18.2.1-3.3 0-12.2.2-23.9.2-13.9 0-31.7-.2-48.8-1.2h-.1c-.9 0-1.5 1.1-.8 1.8 2 2.2 5 5.1 6.6 6.4z"></path></g><path d="M417.6 376.2c-4.1 0-7.4 3.3-7.4 7.4 0 9.9 14.8 9.9 14.8 0 0-4.1-3.3-7.4-7.4-7.4zM503.2 355.7c-4.1 0-7.4 3.3-7.4 7.4 0 9.9 14.8 9.9 14.8 0 0-4.1-3.3-7.4-7.4-7.4z"></path><path d="M457.9 375.4c-7.4.8-12.3 2.5-15.6 4.9-5.9 4.4-4.1 9.9 2.5 10.7 6.6.8 7.1 1.2 13.2-3.3 6.5-4.9 7.3-13.1-.1-12.3z" style="transform-origin:55% 63%;animation:Face--group__nose .3s 0s 4 normal linear forwards"></path><path fill="#010101" d="M599 343.5c-7.5-16.5-28.4-14.6-79.5 7.4-6.3-10-17.8-16.3-30.4-15.3-15.8 1.3-28.2 13.7-30 29.1-4.4-1.9-8.6-2.4-12.6-1.4-4.4 1.1-7.6 3.8-9.6 6.1-6.5-9.3-17.5-15.1-29.6-14.1-18.1 1.5-31.6 17.5-30.1 35.8 1.4 18.3 17.3 31.9 35.4 30.5 18.1-1.5 31.6-17.5 30.1-35.8-.3-3.8-1.2-7.4-2.7-10.7l.1-.1c1-1.6 3.8-5 8-6.1 3.3-.8 6.9 0 10.9 2.3v.2c1.4 18.3 17.3 31.9 35.4 30.5 18.1-1.5 31.6-17.5 30.1-35.8-.3-3.5-1.1-6.8-2.3-9.8 52.8-22.7 66.5-20.8 71.3-10.3.7 1.5 2.5 2.2 4 1.5 1.5-.8 2.2-2.5 1.5-4zm-186.9 72.2c-14.9 1.2-28.1-10.1-29.3-25.2-1.2-15.1 10-28.4 24.9-29.6 14.9-1.2 28.1 10.1 29.3 25.2s-10 28.4-24.9 29.6zm81.8-19.6c-14.9 1.2-28.1-10.1-29.3-25.2-1.2-15.1 10-28.4 24.9-29.6 14.9-1.2 28.1 10.1 29.3 25.2 1.3 15.1-9.9 28.4-24.9 29.6z"></path><path fill="#f4e3d7" d="M512.4 655.2c-4.6-5.2-3.7-15.7-1.9-29.4 2.6-19.8 5-34.5 25.4-50.8 24.4-19.5 62.2-15 76.2-.5 3.6 3.7 6.7 10.9 7.3 18.8.9 11.4-22.2 42.4-44.8 51.8-22.6 9.6-54 19.3-62.2 10.1z"></path><path d="M512.4 658.9c-1.2 0-2.3-.5-3-1.6-4.7-6.7-4.5-17.2-2.6-32 2.5-19 4.6-35.5 26.8-53.2 26.8-21.4 63.7-14 78.4.7 1.4 1.4 1.4 3.8 0 5.2-1.4 1.4-3.8 1.4-5.2 0-12.5-12.5-45.4-18.7-68.6-.1-18.9 15.1-21.4 28.2-24.1 48.4-1.4 11-2.3 21.8 1.3 26.7 1.2 1.7.8 4-.9 5.2-.6.5-1.4.7-2.1.7z"></path><path d="M239.7 479.1s-10.3-24.6-12.2-35.1c6.6 6.3 63.164-5.571 63.164-5.571l-2.979 38.025c-15.9 6.5-34.685 7.646-47.985 2.646Z" style="fill:#995939;stroke:#000;stroke-width:4;stroke-linecap:square;stroke-linejoin:round;stroke-miterlimit:10" transform="rotate(.895 14293.439 -2405.174) scale(1.82724)"></path><path d="M266.805 446.952s3.895 29.553.795 32.953c4.4 0 19.861-3.748 19.861-3.748l2.432-33.821z" style="display:inline;fill:#723c25" transform="rotate(.895 14293.439 -2405.174) scale(1.82724)"></path><path d="M239.7 479.1s-10.3-24.6-12.2-35.1c6.6 6.3 63.164-5.571 63.164-5.571l-2.979 38.025c-15.9 6.5-34.685 7.646-47.985 2.646Z" style="fill:none;stroke:#000;stroke-width:4;stroke-linecap:square;stroke-linejoin:round;stroke-miterlimit:10;stroke-opacity:1" transform="rotate(.895 14293.439 -2405.174) scale(1.82724)"></path><path d="M223.2 444.6s-2.7-6.2-4.7-16.7c11.3-10.6 63.9-16.3 75-8.3l-3.6 21c-23.2 5.8-48.8 9.2-66.7 4z" style="fill:#4c2d1b;stroke:#000;stroke-width:4;stroke-linecap:square;stroke-linejoin:round;stroke-miterlimit:10" transform="rotate(.895 14293.439 -2405.174) scale(1.82724)"></path><path d="M228.3 427.5s.7-7.2 7.7-9c1.6-6.1 9.3-8.1 12.9-5 0-4 8.4-7.5 12.1-3.6 4.8-1.5 10.9.2 12 3.7 5.1-1.1 11.3 3 10.4 6.8 3.5-.8 3.5.6 3.5.6l4.3 6.5-31.3 2.5-32.3 3.9z" style="fill:#4c3818;stroke:#000;stroke-width:3;stroke-linecap:round;stroke-linejoin:round;stroke-miterlimit:10" transform="rotate(.895 14293.439 -2405.174) scale(1.82724)"></path><path d="M223.2 444.6s-2.7-6.2-4.7-16.7c16.4 5.8 54.9 3.5 74.5-7.6l1.5 19.2c-23.1 5.9-46.5 12.5-71.3 5.1z" style="display:inline;fill:#995939;stroke:none;stroke-width:4;stroke-linecap:square;stroke-linejoin:round;stroke-miterlimit:10" transform="rotate(.895 14293.439 -2405.174) scale(1.82724)"></path><path d="M267.068 430.203c.5 1.9 2.21 9.616 2.11 13.916 3.677-.276 11.861-2.936 24.136-6.11 0 0-.614-9.609-1.914-14.609-10 4.4-19.032 5.703-24.332 6.803z" style="display:inline;fill:#723c25" transform="rotate(.895 14293.439 -2405.174) scale(1.82724)"></path><path d="M223.2 444.6s-2.7-6.2-4.7-16.7c16.4 5.8 54.9 3.5 74.5-7.6l1.5 19.2c-23.1 5.9-46.5 12.5-71.3 5.1z" style="display:inline;fill:none;fill-opacity:1;stroke:#000;stroke-width:4;stroke-linecap:square;stroke-linejoin:round;stroke-miterlimit:10;stroke-opacity:1" transform="rotate(.895 14293.439 -2405.174) scale(1.82724)"></path><path d="M256.3 417.7s-1.5-13.6-7.2-20.3c2.2-2.8 5-2.5 6.2-7.6 1.1-4.9 1.8-9.6 6.6-13-4.2-2.5-10.6-2.3-14.3 1.8-3 3.2-5.6 9.7-5 14.8-4.9-1.9-10.6-3.7-16.2 1.7 4.6 8.3 9.3 5.8 17.5 6.8 4.2 4.8 6.8 12.8 6.8 16.5 2.2 1.4 5.6-.7 5.6-.7z" style="fill:#61b729" transform="rotate(.895 14293.439 -2405.174) scale(1.82724)"></path><path d="M242.4 422.7s3.5-5.7 11.2-2.6c3-3.7 8.2-3.8 12.2-1.2" style="fill:none;stroke:#000;stroke-width:3;stroke-linecap:round;stroke-linejoin:round;stroke-miterlimit:10" transform="rotate(.895 14293.439 -2405.174) scale(1.82724)"></path><path d="M243.8 393.8c-4.9-1.9-11.9-4-17.5 1.3 4.6 8.3 11.3 5.8 19.4 6.8-2.6-3.1-2-4.6-1.9-8.1z" style="fill:#478e19" transform="rotate(.895 14293.439 -2405.174) scale(1.82724)"></path><path d="M413.495 551.714c-1.645-.025-3.466-.42-4.91-1.538-.723-.56-1.257-1.482-1.242-2.395.091-5.847-3.903-19.25-10.534-27.577-2.918-.411-5.658-.454-8.216-.494-9.498-.33-17.534-.64-24.456-13.722-.531-1.105-.329-2.381.6-3.28 10.382-9.524 20.947-7.348 28.58-4.67.511-9.313 5.236-19.29 10.257-24.877 8.176-8.644 21.513-8.435 29.658-3.374.722.56 1.259 1.299 1.245 2.212-.015.914-.394 1.822-1.134 2.358-7.202 4.822-8.767 11.376-10.534 19.207l-.59 2.732c-1.756 7.1-5.082 9.423-8.037 11.387-.922.534-1.664 1.254-2.403 1.79 9.478 13.306 11.681 36 11.667 36.914.166 1.1-.397 2.004-1.319 2.538-.74.537-4.43 2.855-8.632 2.79zm-.825-5.678c1.455.389 3.477-.31 4.764-.839-.822-5.86-3.643-24.18-11.713-33.991-.9-.928-.876-2.39.054-3.471 1.679-2.167 3.526-3.417 5.187-4.488 2.587-1.787 4.62-3.217 5.793-8.133.197-.91.394-1.821.588-2.55 1.57-6.92 3.325-14.019 9.26-19.591-6.183-1.924-14.053-1.133-19.072 4.27-5.016 5.222-9.757 16.295-8.792 24.717.168.916-.212 1.824-1.137 2.54-.739.537-1.838.703-2.746.323-8.715-3.608-16.72-5.926-25.047.705 5.17 8.304 10.1 8.564 18.867 8.884 2.923.046 6.209.28 9.857.702.73.012 1.273.386 1.813.942 7.539 8.707 11.893 22.481 12.324 29.98z"></path><g style="transform-origin:49% 66%;animation:LeftFoot--group 3s 12s 2 normal linear forwards"><path d="M523.7 651.2c-.4 1.9-2 9.1-6.7 16.2-7 10.6-17.8 16.5-30.4 16.5-7.2 0-12.9-2.1-16.8-6.2-7.5-7.8-7.1-21-6.7-33.7v-.1c.2-6.4.4-13.1-.4-18.5-.7-4.4-1.8-9.1-3.1-14.5-2.4-10.2-4.6-20.1-4.3-28.7.4-10.7 4.7-18.9 12.8-24.4 3.5-2.4 7.4-3.5 11.4-3.5 9.3 0 18.9 6.2 28.7 18.6 7.1 8.9 13.1 20 15.4 28.1 6.4 21.8 4.9 34.9.1 50.2z"></path><path fill="#f4e3d7" d="M477 670.8c2 2.1 5.2 3.1 9.6 3.1 22.6 0 27-23.7 27.2-24.7 0-.2.1-.4.1-.6 4.4-13.9 5.7-25.2 0-44.8-3.7-13.2-21.1-39.4-34.4-39.4-2 0-4 .6-5.8 1.9-11.7 7.8-9.3 21.8-4.4 42.4 1.2 5.1 2.5 10.4 3.2 15.3 1 6.4.8 13.5.5 20.4-.2 10.6-.6 21.6 4 26.4z"></path><path fill="#4B351F" stroke="#000" stroke-width="7" d="M523.7 651.2c-.4 1.9-2 9.1-6.7 16.2-7 10.6-17.8 16.5-30.4 16.5-7.2 0-12.9-2.1-16.8-6.2-7.5-7.8-7.1-21-6.7-33.7v-.1c.2-6.4.4-13.1-.4-18.5-.7-4.4-1.8-9.1-3.1-14.5-2.4-10.2-4.6-20.1-4.3-28.7.4-10.7 4.7-18.9 12.8-24.4 3.5-2.4 7.4-3.5 11.4-3.5 9.3 0 18.9 6.2 28.7 18.6 7.1 8.9 13.1 20 15.4 28.1 6.4 21.8 4.9 34.9.1 50.2z"></path><path d="M487.9 568.8h-.2l-13.6-1.4c-.8-.1-1.4-.8-1.3-1.6s.8-1.4 1.6-1.3l13.6 1.4c.8.1 1.4.8 1.3 1.6 0 .7-.6 1.3-1.4 1.3zm14.5 11c.1-.8-.5-1.6-1.3-1.6l-34.6-3.6c-.8-.1-1.6.5-1.6 1.3-.1.8.5 1.6 1.3 1.6l34.6 3.6h.2c.6.1 1.3-.5 1.4-1.3zm7.6 11.8c.1-.8-.5-1.6-1.3-1.6l-43.2-4.5c-.8-.1-1.6.5-1.6 1.3-.1.8.5 1.6 1.3 1.6l43.2 4.5h.2c.7.1 1.3-.5 1.4-1.3zm5.2 11.6c.1-.8-.5-1.6-1.3-1.6l-46.7-4.9c-.8-.1-1.6.5-1.6 1.3-.1.8.5 1.6 1.3 1.6l46.7 4.9h.2c.6.1 1.3-.5 1.4-1.3zm2.8 11.3c.1-.8-.5-1.6-1.3-1.6l-47-4.9c-.8-.1-1.6.5-1.6 1.3-.1.8.5 1.6 1.3 1.6l47 4.9h.2c.6.1 1.3-.5 1.4-1.3zm1.2 11.2c.1-.8-.5-1.6-1.3-1.6l-45.7-4.8c-.8-.1-1.6.5-1.6 1.3-.1.8.5 1.6 1.3 1.6l45.7 4.8h.2c.7 0 1.3-.5 1.4-1.3zm-.8 10.9c.1-.8-.5-1.6-1.3-1.6l-43.7-4.5c-.8-.1-1.6.5-1.6 1.3-.1.8.5 1.6 1.3 1.6l43.7 4.5h.2c.7.1 1.3-.5 1.4-1.3zm-2.6 10.8c.1-.8-.5-1.6-1.3-1.6l-41.3-4.3c-.8-.1-1.6.5-1.6 1.3-.1.8.5 1.6 1.3 1.6l41.3 4.3h.2c.7.1 1.3-.5 1.4-1.3zm-3.5 10.7c.1-.8-.5-1.6-1.3-1.6l-37.9-3.9c-.8-.1-1.6.5-1.6 1.3-.1.8.5 1.6 1.3 1.6l37.9 3.9h.2c.7 0 1.4-.6 1.4-1.3zm-7.7 10.2c.1-.8-.5-1.6-1.3-1.6l-29.1-3c-.8-.1-1.6.5-1.6 1.3-.1.8.5 1.6 1.3 1.6l29.1 3h.2c.7.1 1.4-.5 1.4-1.3z"></path></g>    <rect style="display:block;fill:#ffffff;fill-opacity:1;fill-rule:evenodd;stroke:#000000;stroke-width:6.62304;stroke-linecap:square;stroke-linejoin:round;stroke-opacity:1;paint-order:stroke fill markers" id="rect69" width="1700" height="300" x="-1100" y="448.21094"></rect><path d="M478 413.3c-6.4 2.9-12.4 6.6-17.6 11.1-12.1 10.6-12.6 19.4-10.8 24.8 2.5 7.7 11.1 13.4 21.9 14.6 7.1.7 16.2-1.3 26.7-3.6 13.9-3.1 29.7-6.6 42.9-3.9 19.6 4.1 33.3 15 53.1 32.7l10.3 9.2c1.5 1.3 3.9 1.2 5.2-.4 1.3-1.5 1.2-3.9-.4-5.2l-2.9-2.6c-24-21.7-39.9-36-63.8-41-14.8-3.1-31.3.6-46 3.9-9.5 2.1-18.5 4.1-24.3 3.5-7.8-.8-14.1-4.6-15.7-9.5-1.5-4.7 1.6-10.7 8.7-17 20.7-18.2 59.1-23.7 87.5-12.5 4.7 1.9 7.4-5.1 2.7-6.9-11.4-4.4-24.6-6.6-37.7-6.2-10.1.4-30.5 4.8-39.8 9z"></path><path fill="#f4e3d7" d="M615.4 451c11.7 12.2 17 60.3-6 41.6l-2.9-2.6c-24-21.7-39.9-36-63.8-41-14.8-3.1-31.3.6-46 3.9-9.5 2.1-18.5 4.1-24.3 3.5-7.8-.8-14.1-4.6-15.7-9.5-1.5-4.7 1.6-10.7 8.7-17 20.7-18.2 59.3-24 87.5-12.5 4.6 2 46.1 16.5 62.5 33.6z"></path><path d="M591.41 420.96c-1.228-.36-16.635-10.734-40.905-15.5-1.7-.4-3.683 1.211-4.083 2.111 2.54.686 2.583.73 2.583.73.9 1.5 1.6 3.258 2.2 5.758.2.8.4 1.7.6 2.7.5 3 .9 6.6 1 10.9.3 9.7-2.1 17.2-5.5 22.3-1.7 2.6-3.7 4.601-5.8 5.901-.2.2-.5.2-.8.2h-.3c-2.8-.5-5.8-.7-8.7-.7 0 0 2.4 6.5 7.5 8 .2.1.4.1.6.1.2.1.4.1.6.1 26.6 2.7 41.147 11.538 65.465 44.61.7 1.3 2 2 3.3 2 .6 0 1.2-.101 1.7-.401a3.48 3.48 0 0 0 1.27-1.11c.063-.09.124-.181.184-.273 4.81-11.512-4.69-55.107-4.24-70.343 2.636.599 5.658-4.605 1.485-6.88-1.552-.752-10.695-6.038-18.159-10.204z" style="fill:#000"></path><path fill="#0073AA" d="M612.796 440.859c-19.666-11.75-24.38-16.3-53.722-26.453.1.3.1.6.2.9.733 3.467 1.134 7.467 1.2 12 .4 13-3.5 21.7-6.8 26.6-.8 1.1-1.6 2.2-2.5 3.2 31.328 7.613 49.466 33.842 61.756 49.582 20.91-14.779 22.188-53.708-.134-65.83z"></path><path d="M390.6 457c-5.2 5.1-11.7 8.1-17.8 8.1-8.1 0-14-5.1-15.6-13.3-1-5.4.9-11.3 5.4-16.7 5.8-6.9 14.9-12 21.7-12.1h.2c1.3 0 2.6.2 3.8.6h.2l.1.1c4.5 1.8 7.9 6.2 9.1 11.8 1.4 7.5-1.2 15.5-7.1 21.5z"></path><path fill="#f4e3d7" d="M385.4 451.7c4.2-4.2 6-9.6 5-14.7-.6-3.1-2.3-5.5-4.6-6.4-.4-.1-.9-.2-1.3-.2h-.1c-4 0-11.3 3.6-16.1 9.4-1.8 2.1-4.6 6.3-3.8 10.6 1.1 6 5.1 7.3 8.3 7.3 4.1 0 8.8-2.2 12.6-6z"></path></svg>
